<?xml version="1.0" encoding="UTF-8" standalone="no"?>
<svg width="108px" height="29px" viewBox="0 0 108 29" version="1.1" xmlns="http://www.w3.org/2000/svg" xmlns:xlink="http://www.w3.org/1999/xlink">
    <!-- Generator: Sketch 3.6.1 (26313) - http://www.bohemiancoding.com/sketch -->
    <title>path2995</title>
    <desc>Created with Sketch.</desc>
    <defs></defs>
    <g id="Landing" stroke="none" stroke-width="1" fill="none" fill-rule="evenodd">
        <g id="landing_page-copy-5" transform="translate(-903.000000, -2153.000000)" fill="#A2ACBD">
            <g id="CTA" transform="translate(0.000000, 1920.000000)">
                <g id="-" transform="translate(53.375000, 228.500000)">
                    <path d="M876.591634,32.9232478 C874.725921,32.6515563 873.094104,31.861834 871.847973,30.6275405 C870.808542,29.5979845 870.134615,28.4657319 869.637828,26.9143148 C868.86222,24.492167 868.861947,21.3780406 869.637136,19.0052928 C870.388386,16.7058161 872.079885,14.7042262 874.150088,13.6650122 C877.017015,12.2258529 881.052117,12.3162554 883.707359,13.8791338 C886.096994,15.2856746 887.544523,17.7849045 887.947225,21.1994693 C888.070184,22.2420564 887.990406,24.4441242 887.796742,25.3531344 C887.004107,29.0735689 884.695612,31.6725052 881.313495,32.6520665 C880.949045,32.7576214 880.38389,32.8811174 880.057594,32.9265002 C879.367126,33.0225357 877.259867,33.0205583 876.591633,32.9232455 L876.591634,32.9232478 Z M879.38284,31.4292029 C879.927912,31.2673337 880.600109,30.6369753 880.958565,29.9515546 C881.698557,28.53658 882.028998,26.4442129 882.037171,23.1217719 C882.047414,18.9578971 881.394688,16.3082696 880.016925,14.9209377 C879.438351,14.3383443 879.028095,14.1574116 878.28837,14.1586019 C876.646647,14.1612411 875.604662,15.8751191 875.192978,19.2499625 C875.003745,20.8012203 875.002751,24.4969075 875.191201,25.8532673 C875.774386,30.0507179 877.280071,32.0536574 879.38284,31.4292029 L879.38284,31.4292029 Z M909.637331,32.9222621 C908.874014,32.8448754 906.541386,32.4566853 905.726569,32.2714422 L905.162851,32.1432858 L905.20681,29.1329277 C905.312646,21.8851877 905.325958,17.9286566 905.257454,14.0809066 C905.190348,10.3116078 905.170778,9.91307262 905.025423,9.35550977 C904.841245,8.64902963 904.575414,8.15622553 904.25569,7.92856115 C904.131483,7.84011841 903.794026,7.71477893 903.505787,7.65003018 C902.547706,7.43481142 902.599749,7.46932213 902.574171,7.03224824 C902.559437,6.78047976 902.586717,6.61415477 902.651114,6.56311889 C902.737447,6.4947007 910.595534,4.99579904 910.845822,5.00000885 C910.917742,5.0012184 910.927929,6.00598461 910.891083,9.46429484 C910.864932,11.9187936 910.861573,13.9270196 910.883619,13.9270196 C910.905664,13.9270196 911.192801,13.8026873 911.521701,13.6507261 C912.513108,13.1926682 913.426885,12.9939138 914.754078,12.9476561 C915.637713,12.9168579 916.047022,12.9361446 916.500378,13.0299434 C919.464463,13.6432064 921.657956,16.0693353 922.424507,19.5823693 C922.624476,20.4988053 922.698871,22.7763762 922.566102,23.9171895 C922.452941,24.8895219 922.130093,26.1996156 921.794128,27.0498024 C920.526399,30.2578991 917.806425,32.3508571 914.198144,32.8947417 C913.36699,33.0200235 910.756964,33.0357723 909.637333,32.9222621 L909.637331,32.9222621 Z M912.721117,31.3920553 C913.280095,31.2860471 913.714347,31.0635895 914.180582,30.644405 C915.349104,29.5938026 916.227648,27.4248636 916.573179,24.7375861 C916.713913,23.6430628 916.694958,21.1490412 916.538963,20.2354745 C916.11707,17.7647107 915.210441,16.1408235 913.887829,15.4869582 C913.339182,15.2157207 913.254577,15.1965879 912.603823,15.1965879 C912.138405,15.1965879 911.738023,15.2464173 911.397588,15.3467101 L910.888011,15.4968316 L910.850377,18.3090362 C910.80217,21.9114132 910.91937,30.9300763 911.017754,31.1888451 C911.080538,31.3539821 911.149663,31.3889945 911.461178,31.4134433 C912.194447,31.4709932 912.315736,31.4689342 912.721117,31.3920553 L912.721117,31.3920553 Z M931.758599,32.8841789 C927.941384,32.1956574 925.211456,29.4887023 924.319442,25.5076054 C924.204712,24.9955601 924.153975,24.422627 924.125206,23.3141307 C924.079686,21.5604275 924.222324,20.4719589 924.674883,19.1195086 C925.543852,16.5226327 927.10123,14.6824635 929.363462,13.5795572 C931.751251,12.4154395 935.015826,12.3391938 937.128996,13.398189 C939.508205,14.5905106 940.908193,16.9712212 941.263349,20.4287482 C941.311161,20.8942566 941.338877,21.44825 941.324942,21.6598447 L941.299597,22.0445624 L935.605775,22.0642746 L929.911954,22.083986 L929.93366,22.7567664 C929.983935,24.3151738 930.318977,25.6935856 930.938788,26.892005 C931.220509,27.4367206 931.444715,27.7336957 931.989429,28.283655 C933.219956,29.5260276 934.444097,30.0070555 936.375211,30.0070555 C937.775391,30.0070555 938.782304,29.7276374 939.835346,29.0468703 C940.130294,28.8561896 940.42915,28.7001781 940.499469,28.7001781 C940.660211,28.7001781 941.030294,29.1766101 941.030294,29.3835413 C941.030294,29.722603 939.926347,30.8159752 938.849592,31.5433563 C937.967719,32.139087 936.569155,32.6784973 935.356417,32.8906322 C934.507068,33.0392025 932.599091,33.03578 931.758599,32.8841766 L931.758599,32.8841789 Z M934.174518,20.3424114 L935.51322,20.295839 L935.46503,19.3449362 C935.295077,15.9917624 934.474521,14.1593383 933.143582,14.1608056 C931.697105,14.1623983 930.54119,16.0220227 930.060593,19.1207081 C930.001516,19.5015786 929.952565,19.9532371 929.951803,20.1243934 L929.950418,20.4355869 L931.393109,20.4122853 C932.186589,20.3994696 933.438222,20.3680267 934.17451,20.3424114 L934.174518,20.3424114 Z M947.147305,32.9587934 C945.776456,32.8118559 943.594799,32.3342166 942.868399,32.0219936 L942.513604,31.8694976 L942.465222,30.1117149 C942.438615,29.144934 942.407922,27.8523003 942.397019,27.239195 L942.377191,26.1244587 L942.589832,26.0225439 C942.706779,25.9664905 942.942818,25.9141289 943.114349,25.9061837 L943.426231,25.8917391 L943.691948,26.5457337 C944.728601,29.097199 945.944386,30.4729063 947.532369,30.8913183 C948.138146,31.0509323 949.273932,31.0523357 949.72239,30.8940267 C950.978601,30.4505719 951.667461,29.499409 951.673455,28.2000482 C951.680534,26.6612044 950.834693,25.9218194 947.639167,24.6735798 C945.65941,23.9002458 944.968803,23.5021992 944.146508,22.6605108 C943.259464,21.7525448 942.833712,20.7190092 942.753783,19.2795765 C942.657196,17.5401617 943.20161,16.0738119 944.407923,14.824242 C945.621892,13.5667438 947.197873,12.8852034 949.344728,12.689293 C951.235269,12.5167726 954.13721,12.9177397 955.657645,13.5615616 L955.935034,13.679019 L955.984501,15.2457125 C956.011708,16.1073931 956.039847,17.2624979 956.047033,17.8126119 L956.060098,18.8128178 L955.687584,18.9511292 C955.098612,19.1698112 955.059932,19.1424046 954.732299,18.2743323 C953.813939,15.8410869 952.74694,14.689747 951.084375,14.3380527 C950.071137,14.1237157 949.224758,14.3541424 948.609579,15.0118195 C948.129644,15.524909 947.942394,15.9805525 947.89702,16.7456882 C947.847869,17.5747002 947.996023,18.0227962 948.502543,18.577002 C949.126839,19.2600875 950.14965,19.8497335 952.187107,20.7011437 C954.682632,21.7439717 955.873372,22.6293002 956.52069,23.9232273 C956.941094,24.7635607 957.060118,25.4347522 957.01783,26.7266749 C956.98609,27.6961073 956.955067,27.8953818 956.734516,28.5462941 C956.015448,30.6684491 954.392155,32.0655659 951.884457,32.7205739 C951.035054,32.9424375 950.913807,32.9539175 949.224781,32.9724101 C948.251445,32.9830668 947.316581,32.9769421 947.147305,32.9587965 L947.147305,32.9587934 Z M850.102272,32.4963966 C850.038299,32.4705828 850.006092,32.2788249 850.006092,31.9237451 C850.006092,31.2862172 849.965458,31.3147617 851.198717,31.0859485 C852.144595,30.910455 852.483,30.7309934 852.900691,30.1833639 C853.710543,29.1215763 853.885587,27.0771527 853.887401,18.6590469 C853.889106,10.7534476 853.736807,9.09039159 852.899236,7.86854674 C852.527631,7.32645107 851.901393,7.03209512 850.852471,6.90648865 L850.044564,6.80974292 L850.022282,6.17901677 L850,5.54829062 L850.253113,5.50318709 C850.392325,5.47838049 855.283461,5.46789848 861.122305,5.4798932 L871.738385,5.50170285 L871.78816,5.80947698 C871.815537,5.97875276 871.86047,7.71505516 871.888011,9.66792667 L871.938086,13.2186012 L871.390723,13.3848577 C870.566792,13.6351197 870.571777,13.6381682 870.201131,12.6574515 C869.290712,10.2485149 868.24675,8.86044661 866.818255,8.1595241 C865.833027,7.67610095 865.377489,7.61765003 862.59514,7.61765003 L860.173712,7.61765003 L860.131971,8.02160358 C860.053695,8.77911575 859.930098,13.6519934 859.930954,15.9467873 L859.931808,18.2358575 L860.643536,18.2317795 C861.034986,18.2295327 861.806878,18.2007289 862.35885,18.1677632 C863.188615,18.1182062 863.435158,18.0741591 863.782306,17.9134518 C864.635246,17.5185937 865.215518,16.649548 865.571018,15.234588 L865.754549,14.5040961 L866.382581,14.4817486 L867.010613,14.4594011 L867.010613,19.0822363 L867.010613,23.7050716 L866.38234,23.6827241 L865.754067,23.6603766 L865.575733,22.929413 C865.240662,21.556004 864.595821,20.5727696 863.798993,20.2202951 C863.431001,20.0575149 862.520438,19.964998 860.758951,19.9114168 L859.931808,19.8862563 L859.931808,21.6229749 C859.931808,23.5155296 860.03585,26.0758126 860.169222,27.4653198 C860.35515,29.4023717 860.850149,30.4727655 861.739118,30.8600908 C861.908869,30.934052 862.445938,31.054187 862.932606,31.1270572 C863.419274,31.1999281 863.87805,31.2908392 863.952108,31.3290824 C864.139923,31.4260697 864.151007,32.4292926 863.965051,32.5006508 C863.819522,32.5564957 850.240885,32.5523284 850.102272,32.4963958 L850.102272,32.4963966 Z M888.031637,32.4818643 C887.961457,32.4371485 887.938525,32.2596952 887.954693,31.8864467 L887.977726,31.35473 L888.247029,31.2973832 C888.395145,31.2658425 888.713287,31.2032382 888.954011,31.1582624 C889.699013,31.0190684 890.127162,30.6146755 890.368076,29.8226596 C890.564346,29.177408 890.650866,27.1131431 890.655383,22.9678848 C890.660907,17.8980846 890.555292,16.7008355 890.042671,16.0221481 C889.764842,15.6543157 889.564567,15.5497102 888.890429,15.420322 C888.557718,15.3564642 888.207595,15.2879968 888.112378,15.2681723 C887.958185,15.2360691 887.939255,15.1858327 887.939255,14.8087548 C887.939255,14.4420904 887.962444,14.3758458 888.112378,14.314191 C888.342666,14.2194935 895.965081,12.695923 896.208564,12.695923 L896.398517,12.695923 L896.361268,13.8308402 C896.340781,14.4550446 896.308027,15.3639401 896.288483,15.8506079 L896.252947,16.7354586 L896.529088,16.2374785 C897.41308,14.6433254 898.404444,13.6537431 899.7227,13.049604 C900.446355,12.7179627 900.929186,12.6189797 901.823245,12.6189797 C902.883545,12.6189797 903.94351,12.964943 903.94351,13.3110158 C903.94351,13.5437154 902.075425,18.4797454 901.972395,18.5192813 C901.922134,18.5385687 901.557364,18.399047 901.161795,18.209235 C900.336837,17.8133805 899.562877,17.6198137 898.811575,17.6214464 C897.875984,17.6234777 896.830871,17.9680963 896.418233,18.4106301 C896.24173,18.5999204 896.240899,18.6113019 896.197047,21.4382797 C896.153619,24.2378648 896.246919,27.6527665 896.404358,29.0262201 C896.538482,30.196282 896.849373,30.7723382 897.49147,31.0405565 C897.705681,31.1300372 899.060973,31.3157273 899.503257,31.3161936 C899.536776,31.316229 899.554089,31.5845988 899.541729,31.9125706 L899.519256,32.508883 L893.825435,32.527224 C890.693833,32.5373113 888.086624,32.5168997 888.031637,32.4818643 L888.031637,32.4818643 Z" id="path2995"></path>
                </g>
            </g>
        </g>
    </g>
</svg>