<?xml version="1.0" encoding="UTF-8" standalone="no"?>
<svg width="130px" height="23px" viewBox="0 0 130 23" version="1.1" xmlns="http://www.w3.org/2000/svg" xmlns:xlink="http://www.w3.org/1999/xlink">
    <!-- Generator: Sketch 3.6.1 (26313) - http://www.bohemiancoding.com/sketch -->
    <title>Shape</title>
    <desc>Created with Sketch.</desc>
    <defs></defs>
    <g id="Landing" stroke="none" stroke-width="1" fill="none" fill-rule="evenodd">
        <g id="landing_page-copy-4" transform="translate(-469.000000, -2355.000000)" fill="#A2ACBD">
            <g id="CTA" transform="translate(0.000000, 2020.000000)">
                <g id="Featured" transform="translate(134.375000, 328.500000)">
                    <path d="M365.130509,26.8521094 C365.130509,27.5141016 364.982853,28.223125 364.471525,28.765625 L377.708634,28.765625 L377.708634,22.1210938 C376.789884,22.5424609 375.657853,22.7505469 374.564103,22.7505469 L371.693009,22.7505469 L371.693009,20.5625 L373.196915,20.5625 C374.017228,20.5625 374.741837,20.6417969 375.521134,20.9726563 L375.521134,15.2304688 C374.741837,15.5607813 374.017228,15.640625 373.196915,15.640625 L371.693009,15.6411719 L371.693009,13.1796875 L374.564103,13.1796875 C375.657853,13.1796875 376.789884,13.3866797 377.708634,13.8085938 L377.708634,7.43804688 L364.446915,7.43804688 C364.955509,7.88046875 365.130509,8.68984375 365.130509,9.35210938 L365.130509,26.8521094 L365.130509,26.8521094 Z M353.646134,15.640625 L353.646134,13.453125 L353.9234,13.453125 C354.672618,13.453125 355.541603,13.5742578 356.107072,13.8747656 L356.107072,7.43804688 L346.815939,7.43804688 L346.815939,28.765625 L354.329728,28.765625 C353.82004,28.3232031 353.646134,27.5138281 353.646134,26.8515625 L353.646134,20.8359375 L357.200822,20.8359375 L357.200822,26.8515625 C357.200822,27.5138281 357.026915,28.3232031 356.517228,28.765625 L364.036759,28.765625 L364.036759,7.43804688 L357.200822,7.4375 L357.200822,15.640625 L353.646134,15.640625 L353.646134,15.640625 Z M337.270236,13.453125 L338.880509,13.453125 L338.880509,26.8515625 C338.880509,27.5138281 338.706876,28.3232031 338.196915,28.765625 L345.716447,28.765625 L345.716447,7.4375 L335.052384,7.43804688 L335.052384,13.8747656 C335.652033,13.5742578 336.52129,13.453125 337.270236,13.453125 L337.270236,13.453125 Z M450.435079,15.640625 L442.253829,15.640625 C441.83547,15.640625 441.35422,15.6004297 440.87297,15.4492188 L440.87297,20.7539063 C441.35422,20.6037891 441.83547,20.5625 442.253829,20.5625 L444.427658,20.5625 L444.427658,22.203125 C444.159689,22.4445703 443.571798,22.5780078 442.97297,22.5780078 C440.484689,22.5780078 438.658126,20.615 438.658126,18.2382813 C438.658126,15.8604688 440.43547,13.7265625 442.923751,13.7265625 C444.427658,13.7265625 446.12297,14.2192969 447.982345,15.0959375 L447.982345,7.4375 L442.513595,7.4375 C436.610079,7.4375 431.90422,12.0071875 431.90422,18.1844141 C431.90422,24.233125 436.642892,29.3125 442.787033,29.3125 C446.172189,29.3125 449.327658,27.9349219 450.976486,26.2494531 C450.645626,25.6473438 450.435079,25.0457813 450.435079,24.3233594 L450.435079,15.640625 L450.435079,15.640625 Z M460.970626,13.1796875 C462.064376,13.1796875 463.196408,13.3866797 464.115158,13.8085938 L464.115158,7.43804688 L450.853439,7.43804688 C451.362033,7.88046875 451.537033,8.68984375 451.537033,9.35210938 L451.537033,26.8521094 C451.537033,27.5141016 451.389376,28.223125 450.878048,28.765625 L464.115158,28.765625 L464.115158,22.1210938 C463.196408,22.5424609 462.064376,22.7505469 460.970626,22.7505469 L458.099533,22.7505469 L458.099533,20.5625 L459.603439,20.5625 C460.423751,20.5625 461.148361,20.6417969 461.927658,20.9726563 L461.927658,15.2304688 C461.148361,15.5607813 460.423751,15.640625 459.603439,15.640625 L458.099533,15.6411719 L458.099533,13.1796875 L460.970626,13.1796875 L460.970626,13.1796875 Z M429.251876,19.140625 C430.389376,17.8830859 431.083908,16.2334375 431.083908,14.5561719 C431.083908,9.64359375 427.425314,7.43941406 423.501486,7.43996094 L415.035861,7.43832031 C415.544454,7.87882813 415.71672,8.68246094 415.719454,9.3428125 L415.71672,26.8515625 C415.71672,27.5105469 415.54172,28.2264063 415.033126,28.765625 L423.178829,28.765625 C422.670236,28.2264063 422.552658,27.4760938 422.552658,26.8515625 L422.552658,22.5107422 C424.890548,22.9550781 426.443673,25.1242578 426.443673,26.8605859 C426.443673,27.5195703 426.290548,28.2264063 425.781954,28.765625 L433.905783,28.765625 C433.397189,28.2264063 433.263204,27.4465625 433.21672,26.7892188 C432.943283,23.0234375 431.649923,20.3686328 429.251876,19.140625 L429.251876,19.140625 Z M422.552658,17.0351563 L422.552658,13.1523438 C423.646408,13.1523438 425.040939,13.453125 425.040939,15.09375 C425.040939,16.734375 423.646408,17.0351563 422.552658,17.0351563 L422.552658,17.0351563 Z M392.74797,19.1953125 L390.56047,13.1796875 L393.84172,13.1796875 L396.02922,7.4375 L380.71672,7.4375 C381.19797,7.92011719 381.643673,8.46125 381.974533,9.09398438 L390.445626,28.765625 L395.072189,28.765625 L402.044845,12.359375 L402.044845,26.8515625 C402.039376,27.5307812 401.869845,28.3232031 401.361251,28.765625 L414.62297,28.765625 L414.62297,22.1210938 C413.715158,22.5430078 412.572189,23.0234375 411.478439,23.0234375 L408.607345,23.0234375 L408.607345,20.5625 L410.111251,20.5625 C410.931564,20.5625 411.656173,20.6423438 412.43547,20.9726562 L412.43547,15.2304688 C411.656173,15.5610547 410.931564,15.640625 410.111251,15.640625 L408.607345,15.640625 L408.607345,13.453125 L411.478439,13.453125 C412.572189,13.453125 413.715158,13.6606641 414.62297,14.0820312 L414.62297,7.43804688 L397.12297,7.4375 L392.74797,19.1953125 L392.74797,19.1953125 Z" id="Shape"></path>
                </g>
            </g>
        </g>
    </g>
</svg>