<?xml version="1.0" encoding="UTF-8" standalone="no"?>
<svg width="109px" height="27px" viewBox="0 0 109 27" version="1.1" xmlns="http://www.w3.org/2000/svg" xmlns:xlink="http://www.w3.org/1999/xlink">
    <!-- Generator: Sketch 3.6.1 (26313) - http://www.bohemiancoding.com/sketch -->
    <title>Combined Shape</title>
    <desc>Created with Sketch.</desc>
    <defs></defs>
    <g id="Landing" stroke="none" stroke-width="1" fill="none" fill-rule="evenodd">
        <g id="landing_page-copy-4" transform="translate(-779.000000, -2354.000000)" fill="#A2ACBD">
            <g id="CTA" transform="translate(0.000000, 2020.000000)">
                <g id="Featured" transform="translate(134.375000, 328.500000)">
                    <path d="M692.261918,9.12533562 C690.415814,7.27923219 687.912024,6.2421275 685.301278,6.2421275 L670.942705,6.2421275 L670.942705,32.4921275 L680.786455,32.4921275 L680.786455,16.0858775 L683.942131,16.0858775 C684.812411,16.0858775 685.649234,16.4315506 686.26458,17.0468834 L689.664598,20.44469 C690.28003,21.0600228 690.630205,21.8946547 690.630205,22.7649341 L690.630205,32.4921275 L700.473955,32.4921275 L700.473955,21.4057944 C700.473955,18.7951466 699.432335,16.2913559 697.586337,14.4452525 L692.261918,9.12533562 Z M743.130211,6.2421275 L743.130211,15.9693209 C743.130211,16.8395019 742.780036,17.6741337 742.164598,18.2894666 L738.762185,21.6872797 C738.146852,22.3027109 737.312319,22.6483775 736.442039,22.6483775 L733.277444,22.6483775 L731.713522,22.6483775 C732.727796,21.0727409 733.286455,19.2306406 733.286455,17.3283622 L733.286455,6.2421275 L723.442705,6.2421275 L723.442705,15.9693209 C723.442705,16.8395019 723.09253,17.6741337 722.477092,18.2894666 L719.074678,21.6872797 C718.459346,22.3027109 717.624812,22.6483775 716.754533,22.6483775 L713.598955,22.6483775 L713.598955,6.2421275 L703.755198,6.2421275 L703.755198,32.4921275 L718.113778,32.4921275 C720.724517,32.4921275 723.230618,31.4550228 725.076623,29.6089194 L728.36458,26.3223603 L728.36458,32.4921275 L737.801278,32.4921275 C740.412017,32.4921275 742.918118,31.4550228 744.764123,29.6089194 L750.086343,24.2889041 C751.932348,22.4428925 752.973961,19.9391084 752.973961,17.3283622 L752.973961,6.2421275 L743.130211,6.2421275 Z M644.692711,16.0858775 L651.255211,16.0858775 L651.255211,32.4921275 L661.098948,32.4921275 L661.098948,16.0858775 L667.661455,16.0858775 L667.661455,6.2421275 L644.692711,6.2421275 L644.692711,16.0858775 Z" id="Combined-Shape"></path>
                </g>
            </g>
        </g>
    </g>
</svg>